<?xml version="1.0" encoding="utf-8"?>
<!-- Generator: Adobe Illustrator 22.0.1, SVG Export Plug-In . SVG Version: 6.00 Build 0)  -->
<svg version="1.1" id="Lag_1" xmlns="http://www.w3.org/2000/svg" xmlns:xlink="http://www.w3.org/1999/xlink" x="0px" y="0px"
	 viewBox="0 0 1000 500" style="enable-background:new 0 0 1000 500;" xml:space="preserve">
<style type="text/css">
	.st0{fill-rule:evenodd;clip-rule:evenodd;}
</style>
<g>
	<g>
		<g>
			<path class="st0" d="M206,165.1h72.3v11.5H206c-16.3,0-29.6,13.3-29.6,29.6v4.8v11.5v72.3c0,16.3,13.3,29.6,29.6,29.6h72.3h11.5
				h4.8c16.3,0,29.6-13.3,29.6-29.6v-72.3h11.5v72.3c0,22.6-18.5,41.1-41.1,41.1h-4.8h-11.5H206c-22.6,0-41.1-18.5-41.1-41.1v-72.3
				V211v-4.8C164.9,183.6,183.4,165.1,206,165.1L206,165.1z"/>
			<path class="st0" d="M312.8,206.1c0-10-8.2-18.1-18.1-18.1h-4.8v11.5h4.8c3.7,0,6.6,3,6.6,6.6v4.8h11.5V206.1L312.8,206.1z"/>
			<path class="st0" d="M294.6,176.5c16.3,0,29.6,13.3,29.6,29.6v4.8h11.5v-4.8c0-22.6-18.5-41.1-41.1-41.1h-4.8v11.5H294.6
				L294.6,176.5z"/>
		</g>
	</g>
	<g>
		<path d="M742,193c-1.7,0-3.1,1.4-3.1,3.2c0,1.8,1.4,3.2,3.1,3.2c1.7,0,3.1-1.4,3.1-3.2C745.1,194.4,743.7,193,742,193z
			 M740.2,209.3V255h3.6v-45.7H740.2z"/>
		<path d="M779.7,209.2c-13,0-22.5,9.5-22.5,22.9c0,13.5,9.6,23,22.5,23c13.1,0,22.5-9.5,22.5-23
			C802.3,218.7,792.8,209.2,779.7,209.2z M779.7,251.6c-11,0-18.9-8-18.9-19.5c0-11.4,8-19.4,18.9-19.4c11.1,0,18.9,8,18.9,19.4
			C798.7,243.7,790.8,251.6,779.7,251.6z"/>
		<path d="M833.7,248.8c-2.4,1.7-5.1,2.6-7.7,2.6c-4.7,0.1-7.3-3.1-7.3-9.6v-28.3h15.5v-3.2h-15.5v-11.3h-3.5v11.3h-6.7v3.2h6.7
			v28.8c0,8.6,3.8,12.8,10.3,12.7c3.4,0,6.7-1.2,9.6-3.2L833.7,248.8z"/>
		<path d="M508.9,208.4c-6.1,0-11.8,1-17,2.8l-29,34.4c-0.6,3.2-0.9,6.6-0.9,10.1c0,27.9,18.8,46.8,47.4,46.8
			c16,0,29.3-5.7,38.3-15.7l-10.6-11.3c-6.8,7-16,10.8-26.1,10.8c-14.6,0-25.6-8.9-28.7-23.2h70
			C554.7,229.6,541.5,208.4,508.9,208.4z M481.9,248.4c2.1-14.8,12.5-24,27.2-24c15.2,0,25.1,9.1,25.8,24H481.9z"/>
		<path d="M611.1,208.4c-15.7,0-27.5,5.6-34.1,18.5v-17.8h-20v92.7h20v-49.3c1.4-14.5,11-25.1,26.3-25.3c13.9,0,22.3,8.5,22.3,22.5
			V294l20-23.7v-26.2C645.6,222,632.7,208.4,611.1,208.4z"/>
		<path d="M672.2,285.4l53-62.7v-13.6l-76.1,0v16.4h51.4l-53,62.7v13.6h79.2v-16.4L672.2,285.4z"/>
		<path d="M412.2,285.4l53-62.7v-13.6l-76.1,0v16.4h51.4l-53,62.7v13.6h79.2v-16.4L412.2,285.4z"/>
	</g>
	<path d="M238.7,274.9l43.3-51.2v-11.1l-62.2,0V226h42l-43.3,51.2v11.1h64.8v-13.4L238.7,274.9z"/>
</g>
</svg>
