<svg id="Lag_1" data-name="Lag 1" xmlns="http://www.w3.org/2000/svg" viewBox="0 0 670.14 170.78"><defs><style>.cls-1{fill-rule:evenodd;}</style></defs><title>Tegnebræt 1</title><path class="cls-1" d="M41.08,0H113.4V11.48H41.08a29.68,29.68,0,0,0-29.6,29.6v88.63a29.68,29.68,0,0,0,29.6,29.6h88.63a29.68,29.68,0,0,0,29.6-29.6V57.38h11.48v72.32a41.2,41.2,0,0,1-41.08,41.08H41.08A41.2,41.2,0,0,1,0,129.71V41.07A41.2,41.2,0,0,1,41.08,0Z"/><path class="cls-1" d="M147.83,41.07A18.17,18.17,0,0,0,129.71,23h-4.83V34.43h4.83a6.66,6.66,0,0,1,6.64,6.64v4.83h11.48V41.07Z"/><path class="cls-1" d="M129.71,11.48a29.68,29.68,0,0,1,29.6,29.6v4.83h11.48V41.07A41.2,41.2,0,0,0,129.71,0h-4.83V11.48Z"/><path d="M577.09,27.92a3.21,3.21,0,1,0,3.07,3.17A3.14,3.14,0,0,0,577.09,27.92Zm-1.83,16.31V89.92h3.59V44.23Z"/><path d="M614.8,44.14c-13,0-22.53,9.47-22.53,22.89s9.55,23,22.53,23,22.53-9.46,22.53-23S627.87,44.14,614.8,44.14Zm0,42.44c-11,0-18.95-8-18.95-19.55,0-11.4,8-19.37,18.95-19.37s18.93,8,18.93,19.37C633.73,78.6,625.85,86.58,614.8,86.58Z"/><path d="M668.73,83.77A13.58,13.58,0,0,1,661,86.4c-4.73.09-7.28-3.06-7.28-9.55V48.54h15.53V45.37H653.74V34.06h-3.5v11.3h-6.67v3.17h6.67V77.29c0,8.59,3.85,12.8,10.34,12.71a16.69,16.69,0,0,0,9.55-3.25Z"/><path d="M344,43.32a53.14,53.14,0,0,0-17,2.78L298,80.45a57.08,57.08,0,0,0-.88,10.07c0,27.86,18.81,46.85,47.38,46.85,16,0,29.26-5.75,38.31-15.67L372.2,110.38a36,36,0,0,1-26.12,10.8c-14.63,0-25.6-8.89-28.74-23.17h70C389.8,64.58,376.56,43.32,344,43.32ZM317,83.38c2.1-14.8,12.55-24,27.18-24,15.15,0,25.08,9.06,25.77,24Z"/><path d="M446.17,43.32c-15.67,0-27.51,5.57-34.13,18.47V44H392v92.66h20V87.39c1.39-14.46,11-25.08,26.3-25.25,13.94,0,22.29,8.54,22.29,22.46V128.9l20-23.72V79C480.66,56.91,467.78,43.32,446.17,43.32Z"/><path d="M507.26,120.31l53-62.71V44L484.1,44V60.4h51.38l-53,62.69v13.59h79.25V120.25Z"/><path d="M247.26,120.31l53-62.71V44L224.1,44V60.4h51.38l-53,62.69v13.59h79.25V120.25Z"/><path d="M73.73,109.88,117,58.64V47.56l-62.19,0V60.92h42L53.53,112.15v11.1h64.75V109.83Z"/></svg>